<svg width="140" height="43" viewBox="0 0 140 43" fill="none" xmlns="http://www.w3.org/2000/svg">
<path d="M4.14 30C3.56 30 3.1 29.84 2.76 29.52C2.44 29.2 2.28 28.75 2.28 28.17V10.68C2.28 10.1 2.44 9.65 2.76 9.33C3.1 9.01 3.56 8.85 4.14 8.85H14.97C15.55 8.85 16 8.98 16.32 9.24C16.64 9.5 16.8 9.87 16.8 10.35C16.8 10.85 16.64 11.24 16.32 11.52C16 11.78 15.55 11.91 14.97 11.91H6.06V17.73H14.37C14.95 17.73 15.4 17.86 15.72 18.12C16.04 18.38 16.2 18.76 16.2 19.26C16.2 19.74 16.04 20.11 15.72 20.37C15.4 20.63 14.95 20.76 14.37 20.76H6.06V26.94H14.97C15.55 26.94 16 27.08 16.32 27.36C16.64 27.62 16.8 28 16.8 28.5C16.8 28.98 16.64 29.35 16.32 29.61C16 29.87 15.55 30 14.97 30H4.14ZM37.046 14.97C38.646 14.97 39.866 15.45 40.706 16.41C41.566 17.35 41.996 18.88 41.996 21V28.38C41.996 28.96 41.816 29.41 41.456 29.73C41.116 30.03 40.666 30.18 40.106 30.18C39.566 30.18 39.116 30.03 38.756 29.73C38.416 29.41 38.246 28.96 38.246 28.38V21C38.246 19.9 38.046 19.12 37.646 18.66C37.266 18.18 36.676 17.94 35.876 17.94C34.896 17.94 34.116 18.28 33.536 18.96C32.956 19.62 32.666 20.53 32.666 21.69V28.38C32.666 28.96 32.486 29.41 32.126 29.73C31.786 30.03 31.346 30.18 30.806 30.18C30.266 30.18 29.816 30.03 29.456 29.73C29.096 29.41 28.916 28.96 28.916 28.38V21C28.916 19.9 28.716 19.12 28.316 18.66C27.936 18.18 27.346 17.94 26.546 17.94C25.566 17.94 24.786 18.28 24.206 18.96C23.646 19.62 23.366 20.53 23.366 21.69V28.38C23.366 28.96 23.186 29.41 22.826 29.73C22.466 30.03 22.016 30.18 21.476 30.18C20.936 30.18 20.486 30.03 20.126 29.73C19.786 29.41 19.616 28.96 19.616 28.38V16.77C19.616 16.21 19.796 15.78 20.156 15.48C20.516 15.18 20.966 15.03 21.506 15.03C22.026 15.03 22.446 15.18 22.766 15.48C23.106 15.76 23.276 16.17 23.276 16.71V17.43C23.736 16.63 24.346 16.02 25.106 15.6C25.886 15.18 26.776 14.97 27.776 14.97C29.976 14.97 31.446 15.89 32.186 17.73C32.626 16.89 33.276 16.22 34.136 15.72C34.996 15.22 35.966 14.97 37.046 14.97ZM52.1674 14.97C54.2074 14.97 55.7174 15.48 56.6974 16.5C57.6974 17.5 58.1974 19.03 58.1974 21.09V28.41C58.1974 28.95 58.0374 29.38 57.7174 29.7C57.3974 30 56.9574 30.15 56.3974 30.15C55.8774 30.15 55.4474 29.99 55.1074 29.67C54.7874 29.35 54.6274 28.93 54.6274 28.41V27.75C54.2874 28.53 53.7474 29.14 53.0074 29.58C52.2874 30.02 51.4474 30.24 50.4874 30.24C49.5074 30.24 48.6174 30.04 47.8174 29.64C47.0174 29.24 46.3874 28.69 45.9274 27.99C45.4674 27.29 45.2374 26.51 45.2374 25.65C45.2374 24.57 45.5074 23.72 46.0474 23.1C46.6074 22.48 47.5074 22.03 48.7474 21.75C49.9874 21.47 51.6974 21.33 53.8774 21.33H54.6274V20.64C54.6274 19.66 54.4174 18.95 53.9974 18.51C53.5774 18.05 52.8974 17.82 51.9574 17.82C51.3774 17.82 50.7874 17.91 50.1874 18.09C49.5874 18.25 48.8774 18.49 48.0574 18.81C47.5374 19.07 47.1574 19.2 46.9174 19.2C46.5574 19.2 46.2574 19.07 46.0174 18.81C45.7974 18.55 45.6874 18.21 45.6874 17.79C45.6874 17.45 45.7674 17.16 45.9274 16.92C46.1074 16.66 46.3974 16.42 46.7974 16.2C47.4974 15.82 48.3274 15.52 49.2874 15.3C50.2674 15.08 51.2274 14.97 52.1674 14.97ZM51.2374 27.54C52.2374 27.54 53.0474 27.21 53.6674 26.55C54.3074 25.87 54.6274 25 54.6274 23.94V23.31H54.0874C52.7474 23.31 51.7074 23.37 50.9674 23.49C50.2274 23.61 49.6974 23.82 49.3774 24.12C49.0574 24.42 48.8974 24.83 48.8974 25.35C48.8974 25.99 49.1174 26.52 49.5574 26.94C50.0174 27.34 50.5774 27.54 51.2374 27.54ZM63.4786 23.46C62.8986 23.46 62.4586 23.33 62.1586 23.07C61.8786 22.81 61.7386 22.45 61.7386 21.99C61.7386 21.53 61.8786 21.17 62.1586 20.91C62.4586 20.63 62.8986 20.49 63.4786 20.49H69.6586C70.2386 20.49 70.6686 20.63 70.9486 20.91C71.2486 21.17 71.3986 21.53 71.3986 21.99C71.3986 22.45 71.2486 22.81 70.9486 23.07C70.6686 23.33 70.2386 23.46 69.6586 23.46H63.4786ZM74.1068 30.18C72.5668 30.24 71.7968 29.71 71.7968 28.59C71.7968 28.11 71.9268 27.75 72.1868 27.51C72.4268 27.25 72.8168 27.1 73.3568 27.06L74.3168 27C75.1368 26.96 75.7568 26.7 76.1768 26.22C76.5968 25.74 76.8068 25.01 76.8068 24.03V10.62C76.8068 10.04 76.9768 9.58 77.3168 9.24C77.6768 8.88 78.1468 8.7 78.7268 8.7C79.3268 8.7 79.7968 8.88 80.1368 9.24C80.4968 9.58 80.6768 10.04 80.6768 10.62V24.03C80.6768 27.81 78.8068 29.84 75.0668 30.12L74.1068 30.18ZM91.6088 30.24C90.1088 30.24 88.7888 29.93 87.6488 29.31C86.5288 28.69 85.6588 27.8 85.0388 26.64C84.4188 25.48 84.1088 24.13 84.1088 22.59C84.1088 21.05 84.4188 19.71 85.0388 18.57C85.6588 17.41 86.5288 16.52 87.6488 15.9C88.7888 15.28 90.1088 14.97 91.6088 14.97C93.1088 14.97 94.4188 15.28 95.5388 15.9C96.6788 16.52 97.5488 17.41 98.1488 18.57C98.7688 19.71 99.0788 21.05 99.0788 22.59C99.0788 24.13 98.7688 25.48 98.1488 26.64C97.5488 27.8 96.6788 28.69 95.5388 29.31C94.4188 29.93 93.1088 30.24 91.6088 30.24ZM91.5788 27.33C92.7988 27.33 93.7288 26.93 94.3688 26.13C95.0088 25.33 95.3288 24.15 95.3288 22.59C95.3288 21.05 95.0088 19.88 94.3688 19.08C93.7288 18.26 92.8088 17.85 91.6088 17.85C90.4088 17.85 89.4788 18.26 88.8188 19.08C88.1788 19.88 87.8588 21.05 87.8588 22.59C87.8588 24.15 88.1788 25.33 88.8188 26.13C89.4588 26.93 90.3788 27.33 91.5788 27.33ZM110.755 14.97C114.195 14.97 115.915 16.98 115.915 21V28.38C115.915 28.94 115.745 29.38 115.405 29.7C115.085 30.02 114.635 30.18 114.055 30.18C113.475 30.18 113.015 30.02 112.675 29.7C112.335 29.38 112.165 28.94 112.165 28.38V21C112.165 19.94 111.945 19.17 111.505 18.69C111.085 18.19 110.415 17.94 109.495 17.94C108.415 17.94 107.545 18.28 106.885 18.96C106.245 19.64 105.925 20.55 105.925 21.69V28.38C105.925 28.94 105.755 29.38 105.415 29.7C105.075 30.02 104.615 30.18 104.035 30.18C103.455 30.18 102.995 30.02 102.655 29.7C102.335 29.38 102.175 28.94 102.175 28.38V10.44C102.175 9.92 102.345 9.5 102.685 9.18C103.045 8.86 103.505 8.7 104.065 8.7C104.625 8.7 105.075 8.85 105.415 9.15C105.755 9.45 105.925 9.86 105.925 10.38V17.37C106.425 16.59 107.085 16 107.905 15.6C108.745 15.18 109.695 14.97 110.755 14.97ZM128.243 14.97C130.003 14.97 131.313 15.47 132.173 16.47C133.033 17.47 133.463 18.98 133.463 21V28.38C133.463 28.94 133.293 29.38 132.953 29.7C132.633 30.02 132.183 30.18 131.603 30.18C131.023 30.18 130.563 30.02 130.223 29.7C129.883 29.38 129.713 28.94 129.713 28.38V21.21C129.713 20.07 129.493 19.24 129.053 18.72C128.633 18.2 127.963 17.94 127.043 17.94C125.963 17.94 125.093 18.28 124.433 18.96C123.793 19.64 123.473 20.55 123.473 21.69V28.38C123.473 28.94 123.303 29.38 122.963 29.7C122.623 30.02 122.163 30.18 121.583 30.18C121.003 30.18 120.543 30.02 120.203 29.7C119.883 29.38 119.723 28.94 119.723 28.38V16.77C119.723 16.25 119.893 15.83 120.233 15.51C120.573 15.19 121.033 15.03 121.613 15.03C122.133 15.03 122.553 15.19 122.873 15.51C123.213 15.81 123.383 16.21 123.383 16.71V17.52C123.883 16.7 124.553 16.07 125.393 15.63C126.233 15.19 127.183 14.97 128.243 14.97Z" fill="white"/>
<path fill-rule="evenodd" clip-rule="evenodd" d="M86.4269 37.2638C80.0757 40.6552 70.87 42.4646 62.944 42.4646C51.8305 42.4646 41.8255 39.4868 34.2563 34.5343C33.6617 34.1447 34.1945 33.614 34.9081 33.9173C43.0767 37.3604 53.1769 39.4317 63.6101 39.4317C70.6464 39.4317 78.3868 38.3771 85.504 36.1886C86.5791 35.8577 87.4783 36.6986 86.4269 37.2638Z" fill="#FF9900"/>
<path fill-rule="evenodd" clip-rule="evenodd" d="M89.0674 35.0754C88.2586 34.324 83.7009 34.7203 81.6551 34.8961C81.0319 34.9513 80.9368 34.5583 81.4982 34.2758C85.1281 32.425 91.0845 32.9592 91.7791 33.5796C92.4736 34.2034 91.5983 38.5287 88.1872 40.5931C87.6639 40.9102 87.1643 40.7413 87.3974 40.3208C88.1634 38.9354 89.8809 35.8301 89.0674 35.0754Z" fill="#FF9900"/>
</svg>
